<?xml version="1.0" encoding="iso-8859-1"?>
<!-- Uploaded to: SVG Repo, www.svgrepo.com, Generator: SVG Repo Mixer Tools -->
<svg fill="#000000" height="800px" width="800px" version="1.1" id="Layer_1" xmlns="http://www.w3.org/2000/svg" xmlns:xlink="http://www.w3.org/1999/xlink" 
	 viewBox="0 0 512 512" xml:space="preserve">
<g>
	<g>
		<path d="M495.304,101.652H351.196v-41.43c0-9.22-7.475-16.696-16.696-16.696H177.499c-9.22,0-16.696,7.475-16.696,16.696v41.43
			H16.696C7.475,101.652,0,109.127,0,118.347v155.268c0,9.22,7.475,16.696,16.696,16.696h0.321v161.467
			c0,9.22,7.475,16.696,16.696,16.696h444.576c9.22,0,16.696-7.475,16.696-16.696V290.311h0.321c9.22,0,16.696-7.475,16.696-16.696
			V118.347C512,109.127,504.525,101.652,495.304,101.652z M194.195,76.917h123.611v24.734H194.195V76.917z M461.592,435.084H50.408
			V290.311h147.351v7.111c0,32.115,26.128,58.241,58.241,58.241s58.241-26.128,58.241-58.241v-7.111h147.351V435.084z
			 M231.15,297.423c0-16.568,0-29.418,0-45.678h49.7c0,16.281,0,29.111,0,45.678c0,13.703-11.148,24.85-24.85,24.85
			C242.298,322.272,231.15,311.124,231.15,297.423z M478.609,256.92h-0.321H314.241v-21.871c0-9.22-7.475-16.696-16.696-16.696
			h-83.091c-9.22,0-16.696,7.475-16.696,16.696v21.871H33.712h-0.321V135.043h445.217V256.92z"/>
	</g>
</g>
</svg>