<?xml version="1.0" encoding="UTF-8" standalone="no"?>
<!-- Uploaded to: SVG Repo, www.svgrepo.com, Generator: SVG Repo Mixer Tools -->

<svg
   fill="#000000"
   height="758.53302"
   width="800"
   version="1.1"
   id="Capa_1"
   viewBox="0 0 463 439.00099"
   xml:space="preserve"
   sodipodi:docname="section-jury-participation.svg"
   inkscape:version="1.1.2 (0a00cf5339, 2022-02-04)"
   xmlns:inkscape="http://www.inkscape.org/namespaces/inkscape"
   xmlns:sodipodi="http://sodipodi.sourceforge.net/DTD/sodipodi-0.dtd"
   xmlns="http://www.w3.org/2000/svg"
   xmlns:svg="http://www.w3.org/2000/svg"><defs
   id="defs15" /><sodipodi:namedview
   id="namedview13"
   pagecolor="#ffffff"
   bordercolor="#999999"
   borderopacity="1"
   inkscape:pageshadow="0"
   inkscape:pageopacity="0"
   inkscape:pagecheckerboard="0"
   showgrid="false"
   fit-margin-top="0"
   fit-margin-left="0"
   fit-margin-right="0"
   fit-margin-bottom="0"
   inkscape:zoom="0.8525"
   inkscape:cx="390.02933"
   inkscape:cy="378.29912"
   inkscape:window-width="1920"
   inkscape:window-height="1031"
   inkscape:window-x="0"
   inkscape:window-y="25"
   inkscape:window-maximized="1"
   inkscape:current-layer="Capa_1" />
<g
   id="g10"
   transform="translate(0,-11.999)">
	<path
   d="M 447,405.234 V 241.766 c 9.29,-3.138 16,-11.93 16,-22.266 0,-7.023 -3.101,-13.332 -8,-17.641 v -37.06 c 0,-13.58 -8.656,-25.589 -21.539,-29.884 l -20.649,-6.882 c -3.476,-1.159 -5.812,-4.4 -5.812,-8.064 v -2.976 c 9.805,-10.174 16,-25 16,-41.491 v -16 c 0,-21.78 -17.72,-39.5 -39.5,-39.5 h -16 C 345.72,20 328,37.72 328,59.5 v 16 c 0,16.491 6.195,31.317 16,41.491 v 2.976 c 0,3.665 -2.336,6.905 -5.812,8.064 l -20.649,6.883 c -5.601,1.867 -10.4,5.195 -14.039,9.473 -1.38,-1.622 -2.938,-3.095 -4.633,-4.416 9.196,-9.574 11.855,-22.34 11.987,-23.001 0.44,-2.204 -0.13,-4.488 -1.554,-6.226 -1.425,-1.738 -3.553,-2.745 -5.8,-2.745 -9.098,0 -16.5,-7.402 -16.5,-16.5 v -24 c 0,-30.603 -24.897,-55.5 -55.5,-55.5 -30.603,0 -55.5,24.898 -55.5,55.501 v 24 c 0,9.098 -7.402,16.5 -16.5,16.5 -2.247,0 -4.375,1.007 -5.8,2.745 -1.425,1.738 -1.995,4.022 -1.555,6.226 0.132,0.661 2.791,13.427 11.987,23.001 -1.695,1.321 -3.253,2.793 -4.633,4.416 -3.639,-4.278 -8.438,-7.606 -14.039,-9.473 l -20.649,-6.882 c -3.476,-1.159 -5.812,-4.4 -5.812,-8.064 v -2.976 c 9.805,-10.174 16,-25 16,-41.491 v -7.936 c 0,-0.006 0,-0.011 0,-0.017 V 51.5 c 0,-17.369 -14.131,-31.5 -31.5,-31.5 h -32 C 54.235,20 40.177,33.961 40.007,51.186 40.006,51.217 40.006,51.248 40.005,51.278 40.005,51.352 40,51.426 40,51.5 v 24 c 0,16.491 6.195,31.317 16,41.491 v 2.976 c 0,3.665 -2.336,6.905 -5.812,8.064 l -20.649,6.883 C 16.656,139.209 8,151.218 8,164.798 v 37.06 c -4.899,4.31 -8,10.619 -8,17.641 0,10.336 6.71,19.128 16,22.266 V 405.234 C 6.71,408.372 0,417.164 0,427.5 0,440.458 10.542,451 23.5,451 h 416 c 12.958,0 23.5,-10.542 23.5,-23.5 0,-10.336 -6.71,-19.128 -16,-22.266 z M 31,404 V 243 H 432 V 404 Z M 440,164.798 v 31.214 c -0.167,-0.004 -0.332,-0.013 -0.5,-0.013 H 423 v -8.5 c 0,-4.142 -3.358,-7.5 -7.5,-7.5 -4.142,0 -7.5,3.358 -7.5,7.5 v 8.5 h -25 v -27.958 c 6.732,-3.718 20.019,-11.92 30.167,-23.63 0.1,-0.116 0.187,-0.237 0.279,-0.357 l 15.271,5.09 c 6.749,2.25 11.283,8.541 11.283,15.654 z m -82.092,-37.76 c 5.445,2.547 11.378,3.962 17.592,3.962 6.214,0 12.147,-1.416 17.592,-3.962 1.223,3.883 3.437,7.36 6.394,10.114 -8.422,8.747 -18.836,15.054 -23.992,17.892 -5.151,-2.828 -15.532,-9.107 -23.981,-17.891 2.957,-2.755 5.172,-6.232 6.395,-10.115 z M 343,59.5 C 343,45.991 353.991,35 367.5,35 h 16 c 13.509,0 24.5,10.991 24.5,24.5 v 16 C 408,97.832 393.42,116 375.5,116 357.58,116 343,97.832 343,75.5 Z m -20.718,89.645 15.271,-5.09 c 0.092,0.12 0.179,0.242 0.28,0.357 10.149,11.71 23.435,19.913 30.167,23.63 V 196 h -25 v -8.5 c 0,-4.142 -3.358,-7.5 -7.5,-7.5 -4.142,0 -7.5,3.358 -7.5,7.5 v 8.5 h -17 v -31.202 c 0,-7.113 4.534,-13.404 11.282,-15.653 z m -28.736,-27.756 c -1.908,4.072 -5.015,8.848 -9.803,11.62 l -14.931,-4.977 c -3.476,-1.159 -5.812,-4.4 -5.812,-8.064 v -2.976 c 4.279,-4.44 7.867,-9.766 10.554,-15.732 3.093,9.466 10.552,16.977 19.992,20.129 z M 199,70.978 c 14.503,4.575 30.982,5.854 44.769,5.854 7.936,0 14.971,-0.419 20.222,-0.865 C 263.788,98.083 249.295,116 231.5,116 213.58,116 199,97.832 199,75.5 Z m 14.908,56.06 c 5.445,2.547 11.378,3.962 17.592,3.962 6.214,0 12.147,-1.416 17.592,-3.962 1.704,5.413 5.326,10.048 10.215,13.012 -5.449,8.318 -18.033,20.758 -27.808,29.499 -9.775,-8.737 -22.361,-21.177 -27.808,-29.498 4.89,-2.964 8.512,-7.6 10.217,-13.013 z M 231.5,27 c 19.801,0 36.318,14.288 39.809,33.094 -2.631,0.36 -50.301,6.617 -77.388,-7.268 -0.044,-0.023 -0.09,-0.039 -0.134,-0.061 C 199.694,37.7 214.366,27 231.5,27 Z m -42.054,74.259 c 2.688,5.966 6.275,11.292 10.554,15.732 v 2.976 c 0,3.665 -2.336,6.905 -5.812,8.064 l -14.931,4.977 c -4.789,-2.773 -7.897,-7.551 -9.804,-11.619 9.441,-3.152 16.9,-10.662 19.993,-20.13 z m -11.164,47.886 11.15,-3.717 c 8.641,15.303 34.16,37.198 37.216,39.791 1.4,1.188 3.125,1.781 4.852,1.781 1.726,0 3.453,-0.594 4.852,-1.781 3.057,-2.593 28.569,-24.48 37.216,-39.791 l 11.15,3.717 c 6.748,2.249 11.282,8.54 11.282,15.653 V 196 h -17 v -8.5 c 0,-4.142 -3.358,-7.5 -7.5,-7.5 -4.142,0 -7.5,3.358 -7.5,7.5 v 8.5 h -65 v -8.5 c 0,-4.142 -3.358,-7.5 -7.5,-7.5 -4.142,0 -7.5,3.358 -7.5,7.5 v 8.5 h -17 v -31.202 c 0,-7.113 4.534,-13.404 11.282,-15.653 z M 87.5,140 c -4.142,0 -7.5,3.358 -7.5,7.5 v 15.117 c -7.985,-7.624 -16.188,-16.273 -20.309,-22.566 4.89,-2.963 8.513,-7.599 10.217,-13.013 5.445,2.546 11.378,3.962 17.592,3.962 6.214,0 12.147,-1.416 17.592,-3.962 1.704,5.413 5.326,10.048 10.215,13.012 -4.122,6.291 -12.323,14.939 -20.307,22.564 V 147.5 C 95,143.358 91.642,140 87.5,140 Z M 71.5,35 h 32 c 9.098,0 16.5,7.402 16.5,16.5 v 8.976 C 102.918,61.179 71.803,59.789 55.346,48.138 56.903,40.647 63.554,35 71.5,35 Z M 55,65.287 c 10.572,5.136 24.264,8.384 40.914,9.69 5.907,0.463 11.447,0.618 16.215,0.618 2.953,0 5.607,-0.06 7.871,-0.142 V 75.5 C 120,97.832 105.42,116 87.5,116 69.58,116 55,97.832 55,75.5 Z m -32,99.511 c 0,-7.113 4.534,-13.404 11.282,-15.653 l 11.15,-3.717 c 8.641,15.303 34.16,37.198 37.216,39.791 1.4,1.188 3.125,1.781 4.852,1.781 1.726,0 3.453,-0.594 4.852,-1.781 3.057,-2.593 28.569,-24.48 37.216,-39.791 l 11.15,3.717 c 6.748,2.249 11.282,8.54 11.282,15.653 V 196 h -17 v -8.5 c 0,-4.142 -3.358,-7.5 -7.5,-7.5 -4.142,0 -7.5,3.358 -7.5,7.5 V 196 H 55 v -8.5 c 0,-4.142 -3.358,-7.5 -7.5,-7.5 -4.142,0 -7.5,3.358 -7.5,7.5 V 196 H 23.5 c -0.168,0 -0.333,0.009 -0.5,0.013 z M 23.5,211 h 416 c 4.687,0 8.5,3.813 8.5,8.5 0,4.687 -3.813,8.5 -8.5,8.5 h -416 c -4.687,0 -8.5,-3.813 -8.5,-8.5 0,-4.687 3.813,-8.5 8.5,-8.5 z m 416,225 h -416 c -4.687,0 -8.5,-3.813 -8.5,-8.5 0,-4.687 3.813,-8.5 8.5,-8.5 h 416 c 4.687,0 8.5,3.813 8.5,8.5 0,4.687 -3.813,8.5 -8.5,8.5 z"
   id="path2" />
	<path
   d="m 278.5,260 h -94 c -4.687,0 -8.5,3.813 -8.5,8.5 v 110 c 0,4.687 3.813,8.5 8.5,8.5 h 94 c 4.687,0 8.5,-3.813 8.5,-8.5 v -110 c 0,-4.687 -3.813,-8.5 -8.5,-8.5 z M 272,372 h -81 v -97 h 81 z"
   id="path4" />
	<path
   d="m 150.5,260 h -94 c -4.687,0 -8.5,3.813 -8.5,8.5 v 110 c 0,4.687 3.813,8.5 8.5,8.5 h 94 c 4.687,0 8.5,-3.813 8.5,-8.5 v -110 c 0,-4.687 -3.813,-8.5 -8.5,-8.5 z M 144,372 H 63 v -97 h 81 z"
   id="path6" />
	<path
   d="m 406.5,260 h -94 c -4.687,0 -8.5,3.813 -8.5,8.5 v 110 c 0,4.687 3.813,8.5 8.5,8.5 h 94 c 4.687,0 8.5,-3.813 8.5,-8.5 v -110 c 0,-4.687 -3.813,-8.5 -8.5,-8.5 z M 400,372 h -81 v -97 h 81 z"
   id="path8" />
</g>
</svg>
