<?xml version="1.0" encoding="UTF-8" standalone="no"?>
<!-- Uploaded to: SVG Repo, www.svgrepo.com, Generator: SVG Repo Mixer Tools -->

<svg
   fill="#000000"
   height="224"
   width="360"
   version="1.1"
   id="图层_1"
   viewBox="0 0 18 11.2"
   enable-background="new 0 0 40 40"
   xml:space="preserve"
   sodipodi:docname="supervisions.svg"
   inkscape:version="1.1.2 (0a00cf5339, 2022-02-04)"
   xmlns:inkscape="http://www.inkscape.org/namespaces/inkscape"
   xmlns:sodipodi="http://sodipodi.sourceforge.net/DTD/sodipodi-0.dtd"
   xmlns="http://www.w3.org/2000/svg"
   xmlns:svg="http://www.w3.org/2000/svg"><defs
   id="defs55" /><sodipodi:namedview
   id="namedview53"
   pagecolor="#ffffff"
   bordercolor="#999999"
   borderopacity="1"
   inkscape:pageshadow="0"
   inkscape:pageopacity="0"
   inkscape:pagecheckerboard="0"
   showgrid="false"
   fit-margin-top="0"
   fit-margin-left="0"
   fit-margin-right="0"
   fit-margin-bottom="0"
   inkscape:zoom="0.8525"
   inkscape:cx="-25.219941"
   inkscape:cy="101.46628"
   inkscape:window-width="1920"
   inkscape:window-height="1031"
   inkscape:window-x="0"
   inkscape:window-y="25"
   inkscape:window-maximized="1"
   inkscape:current-layer="图层_1" />
<g
   id="g50"
   transform="translate(-11,-14.9)">
	<g
   id="g48">
		<g
   id="g46">
			<g
   id="g14">
				<g
   id="g4">
					<path
   d="m 20,21.9 c -1.5,0 -2.7,-1.3 -2.7,-3 0,-1.7 1.2,-3 2.7,-3 1.5,0 2.7,1.3 2.7,3 0,1.7 -1.2,3 -2.7,3 z m 0,-5 c -0.9,0 -1.7,0.9 -1.7,2 0,1.1 0.7,2 1.7,2 1,0 1.7,-0.9 1.7,-2 0,-1.1 -0.8,-2 -1.7,-2 z"
   id="path2" />
				</g>
				<g
   id="g8">
					<path
   d="m 21.1,20.6 h 0.2 c 1.6,0 2.9,1.3 2.9,2.9 v 2.1 c 0,0.3 -0.2,0.5 -0.5,0.5 -0.3,0 -0.5,-0.2 -0.5,-0.5 v -2.1 c 0,-1 -0.9,-1.9 -1.9,-1.9 h -0.2 z"
   id="path6" />
				</g>
				<g
   id="g12">
					<path
   d="m 18.9,21.6 h -0.2 c -1,0 -1.9,0.9 -1.9,1.9 v 2.1 c 0,0.3 -0.2,0.5 -0.5,0.5 -0.3,0 -0.5,-0.2 -0.5,-0.5 v -2.1 c 0,-1.6 1.3,-2.9 2.9,-2.9 h 0.2 z"
   id="path10" />
				</g>
			</g>
			<g
   id="g44">
				<g
   id="g28">
					<g
   id="g18">
						<path
   d="m 25.5,19.9 c -1.2,0 -2.3,-1.1 -2.3,-2.5 0,-1.4 1,-2.5 2.3,-2.5 1.3,0 2.3,1.1 2.3,2.5 0,1.4 -1.1,2.5 -2.3,2.5 z m 0,-4 c -0.7,0 -1.3,0.7 -1.3,1.5 0,0.8 0.6,1.5 1.3,1.5 0.7,0 1.3,-0.7 1.3,-1.5 0,-0.8 -0.6,-1.5 -1.3,-1.5 z"
   id="path16" />
					</g>
					<g
   id="g22">
						<path
   d="m 26.4,18.7 h 0.2 c 1.3,0 2.4,1.1 2.4,2.4 v 1.7 c 0,0.3 -0.2,0.5 -0.5,0.5 -0.3,0 -0.5,-0.2 -0.5,-0.5 v -1.7 c 0,-0.8 -0.6,-1.4 -1.4,-1.4 h -0.2 z"
   id="path20" />
					</g>
					<g
   id="g26">
						<path
   d="m 24.6,19.7 h -0.2 c -0.8,0 -1.4,0.6 -1.4,1.4 0,0.3 -0.2,0.5 -0.5,0.5 -0.3,0 -0.5,-0.2 -0.5,-0.5 0,-1.3 1.1,-2.4 2.4,-2.4 h 0.2 z"
   id="path24" />
					</g>
				</g>
				<g
   id="g42">
					<g
   id="g32">
						<path
   d="m 14.5,19.9 c -1.2,0 -2.3,-1.1 -2.3,-2.5 0,-1.4 1,-2.5 2.3,-2.5 1.3,0 2.3,1.1 2.3,2.5 0,1.4 -1.1,2.5 -2.3,2.5 z m 0,-4 c -0.7,0 -1.3,0.7 -1.3,1.5 0,0.8 0.6,1.5 1.3,1.5 0.7,0 1.3,-0.7 1.3,-1.5 0,-0.8 -0.6,-1.5 -1.3,-1.5 z"
   id="path30" />
					</g>
					<g
   id="g36">
						<path
   d="m 15.4,18.7 h 0.2 c 1.3,0 2.4,1.1 2.4,2.4 0,0.3 -0.2,0.5 -0.5,0.5 -0.3,0 -0.5,-0.2 -0.5,-0.5 0,-0.8 -0.6,-1.4 -1.4,-1.4 h -0.2 z"
   id="path34" />
					</g>
					<g
   id="g40">
						<path
   d="m 13.6,19.7 h -0.2 c -0.8,0 -1.4,0.6 -1.4,1.4 v 1.7 c 0,0.3 -0.2,0.5 -0.5,0.5 -0.3,0 -0.5,-0.2 -0.5,-0.5 v -1.7 c 0,-1.3 1.1,-2.4 2.4,-2.4 h 0.2 z"
   id="path38" />
					</g>
				</g>
			</g>
		</g>
	</g>
</g>
</svg>
