<?xml version="1.0" encoding="UTF-8" standalone="no"?>
<!-- Created with Inkscape (http://www.inkscape.org/) -->

<svg
   version="1.1"
   id="svg2"
   width="496"
   height="242.15599"
   viewBox="0 0 496 242.15599"
   xmlns="http://www.w3.org/2000/svg"
   xmlns:svg="http://www.w3.org/2000/svg">
  <defs
     id="defs6" />
  <g
     id="g10"
     transform="scale(1.3333333)">
    <g
       id="g12">
      <path
         d="M 90.793,0 0,90.809 90.793,181.617 119.355,152.324 58.582,90.809 120.086,29.293 Z m 189.668,7.324 c -14.957,0.004 -27.086,12.129 -27.086,27.09 -0.004,7.184 2.848,14.078 7.93,19.16 5.078,5.082 11.972,7.942 19.156,7.942 7.191,0.004 14.086,-2.852 19.168,-7.934 5.086,-5.086 7.941,-11.98 7.937,-19.168 0,-7.187 -2.859,-14.078 -7.941,-19.16 -5.082,-5.082 -11.977,-7.934 -19.164,-7.93 z m -60.77,46.867 -28.562,29.293 90.062,90.809 L 372,83.484 342.707,54.191 l -61.516,61.52 z m -79.824,8.786 c -7.191,-0.004 -14.086,2.851 -19.168,7.933 -5.082,5.086 -7.937,11.981 -7.937,19.168 0.004,7.188 2.859,14.078 7.941,19.16 5.082,5.078 11.977,7.934 19.164,7.93 14.957,-0.004 27.086,-12.129 27.09,-27.09 0,-7.187 -2.852,-14.078 -7.934,-19.164 -5.078,-5.082 -11.968,-7.937 -19.156,-7.937 z"
         style="fill:#000000;fill-opacity:1;fill-rule:nonzero;stroke:none"
         id="path14" />
    </g>
  </g>
</svg>
