<?xml version="1.0" encoding="UTF-8" standalone="no"?>
<!-- Uploaded to: SVG Repo, www.svgrepo.com, Generator: SVG Repo Mixer Tools -->

<svg
   fill="#000000"
   version="1.1"
   id="Layer_1"
   viewBox="-143 145 512 512"
   xml:space="preserve"
   sodipodi:docname="profile-linkedin.svg"
   width="512"
   height="512"
   inkscape:version="1.1.2 (0a00cf5339, 2022-02-04)"
   xmlns:inkscape="http://www.inkscape.org/namespaces/inkscape"
   xmlns:sodipodi="http://sodipodi.sourceforge.net/DTD/sodipodi-0.dtd"
   xmlns="http://www.w3.org/2000/svg"
   xmlns:svg="http://www.w3.org/2000/svg"><defs
   id="defs29" /><sodipodi:namedview
   id="namedview27"
   pagecolor="#ffffff"
   bordercolor="#666666"
   borderopacity="1.0"
   inkscape:pageshadow="2"
   inkscape:pageopacity="0.0"
   inkscape:pagecheckerboard="0"
   showgrid="false"
   fit-margin-top="0"
   fit-margin-left="0"
   fit-margin-right="0"
   fit-margin-bottom="0"
   inkscape:zoom="0.95117188"
   inkscape:cx="-92.517454"
   inkscape:cy="256"
   inkscape:window-width="1280"
   inkscape:window-height="683"
   inkscape:window-x="0"
   inkscape:window-y="25"
   inkscape:window-maximized="1"
   inkscape:current-layer="Layer_1" />
<g
   id="g24">
	<path
   d="m 329,145 h -432 c -22.1,0 -40,17.9 -40,40 v 432 c 0,22.1 17.9,40 40,40 h 432 c 22.1,0 40,-17.9 40,-40 V 185 c 0,-22.1 -17.9,-40 -40,-40 z m 10,472 c 0,5.5 -4.5,10 -10,10 h -432 c -5.5,0 -10,-4.5 -10,-10 V 185 c 0,-5.5 4.5,-10 10,-10 h 432 c 5.5,0 10,4.5 10,10 z"
   id="path16" />
	<rect
   x="-8.5"
   y="348.39999"
   width="49.900002"
   height="159.7"
   id="rect18" />
	<path
   d="m 177.7,346.9 c -28.6,0 -46.5,15.6 -49.8,26.6 V 348.4 H 71.8 c 0.7,13.3 0,159.7 0,159.7 h 56.1 v -86.3 c 0,-4.9 -0.2,-9.7 1.2,-13.1 3.8,-9.6 12.1,-19.6 27,-19.6 19.5,0 28.3,14.8 28.3,36.4 v 82.6 H 241 v -88.8 c 0,-49.4 -27.8,-72.4 -63.3,-72.4 z"
   id="path20" />
	<path
   d="m 15.4,273 c -18.4,0 -30.5,11.9 -30.5,27.7 0,15.5 11.7,27.7 29.8,27.7 h 0.4 c 18.8,0 30.5,-12.3 30.4,-27.7 C 45.1,284.9 33.8,273 15.4,273 Z"
   id="path22" />
</g>
</svg>
